#Comment line ignore any data following # character 
#Hierarchical Translation and Rotation (.htr) file 
[Header]	
#Header keywords are followed by a single value 
FileType HTR		#Single word string
DataType HTRS		#Translation followed by rotation and scale data
FileVersion 1		#integer
NumSegments 84		#integer
NumFrames 2		#integer
DataFrameRate 30		#integer, data frame rate in this file
EulerRotationOrder ZYX
CalibrationUnits mm
RotationUnits Degrees
GlobalAxisofGravity Y
BoneLengthAxis Y
ScaleFactor 1.00
[SegmentNames&Hierarchy]
#CHILD	PARENT
MASTER GLOBAL
root MASTER
chest root
L_mid_tent01 root
R_mid_tent01 root
spine01 root
Bip01_Neck chest
L_humerus chest
R_humerus chest
weapon_bone chest
Bip01_Head Bip01_Neck
eye_left_bone Bip01_Head
eye_right_bone Bip01_Head
L_forearm L_humerus
L_front_hand L_forearm
L_weapon_bone L_forearm
L_front_hand01_01 L_front_hand
L_front_hand02_01 L_front_hand
L_front_hand03_01 L_front_hand
L_front_hand01_02 L_front_hand01_01
L_front_hand02_02 L_front_hand02_01
L_front_hand03_02 L_front_hand03_01
R_forearm R_humerus
R_front_hand R_forearm
R_weapon_bone R_forearm
R_front_hand01_01 R_front_hand
R_front_hand02_01 R_front_hand
R_front_hand03_01 R_front_hand
R_front_hand01_02 R_front_hand01_01
R_front_hand02_02 R_front_hand02_01
R_front_hand03_02 R_front_hand03_01
null_rope01_connect L_mid_tent01
Rope1_Seg01 null_rope01_connect
Rope1_Seg02 Rope1_Seg01
Rope1_Seg03 Rope1_Seg02
Rope1_Seg04 Rope1_Seg03
Rope1_Seg05 Rope1_Seg04
Rope1_Seg06 Rope1_Seg05
Rope1_Seg07 Rope1_Seg06
Rope1_Seg09 Rope1_Seg07
L_mid_hand01 Rope1_Seg09
L_mid_hand02 Rope1_Seg09
L_mid_hand03 Rope1_Seg09
null_rope02_connect R_mid_tent01
Rope2_Seg01 null_rope02_connect
Rope2_Seg02 Rope2_Seg01
Rope2_Seg03 Rope2_Seg02
Rope2_Seg04 Rope2_Seg03
Rope2_Seg05 Rope2_Seg04
Rope2_Seg06 Rope2_Seg05
Rope2_Seg07 Rope2_Seg06
Rope2_Seg09 Rope2_Seg07
R_mid_hand01 Rope2_Seg09
R_mid_hand02 Rope2_Seg09
R_mid_hand03 Rope2_Seg09
spine02 spine01
spine03 spine02
pelvis spine03
null_rope03_connect pelvis
null_rope04_connect pelvis
Rope3_Seg01 null_rope03_connect
Rope3_Seg02 Rope3_Seg01
Rope3_Seg03 Rope3_Seg02
Rope3_Seg04 Rope3_Seg03
Rope3_Seg05 Rope3_Seg04
Rope3_Seg06 Rope3_Seg05
Rope3_Seg07 Rope3_Seg06
Rope3_Seg08 Rope3_Seg07
Rope3_Seg09 Rope3_Seg08
R_rear_hand01 Rope3_Seg09
R_rear_hand02 Rope3_Seg09
R_rear_hand03 Rope3_Seg09
Rope4_Seg01 null_rope04_connect
Rope4_Seg02 Rope4_Seg01
Rope4_Seg03 Rope4_Seg02
Rope4_Seg04 Rope4_Seg03
Rope4_Seg05 Rope4_Seg04
Rope4_Seg06 Rope4_Seg05
Rope4_Seg07 Rope4_Seg06
Rope4_Seg08 Rope4_Seg07
Rope4_Seg09 Rope4_Seg08
L_rear_hand01 Rope4_Seg09
L_rear_hand02 Rope4_Seg09
L_rear_hand03 Rope4_Seg09
[BasePosition]
#SegmentName Tx, Ty, Tz, Rx, Ry, Rz, BoneLength
MASTER 0.000000 0.000000 0.000000 -90.000000 0.000000 0.000000 10.000000 
root 0.000000 0.000000 0.000000 0.000000 0.000000 0.000000 10.000000 
chest 0.000000 0.000000 0.000000 0.000000 0.000000 0.000000 10.000000 
L_mid_tent01 0.000000 0.000000 0.000000 0.000000 0.000000 0.000000 10.000000 
R_mid_tent01 0.000000 0.000000 0.000000 0.000000 0.000000 0.000000 10.000000 
spine01 0.000000 0.000000 0.000000 0.000000 0.000000 0.000000 10.000000 
Bip01_Neck 0.000000 0.000000 0.000000 0.000000 0.000000 0.000000 10.000000 
L_humerus 0.000000 0.000000 0.000000 0.000000 0.000000 0.000000 10.000000 
R_humerus 0.000000 0.000000 0.000000 0.000000 0.000000 0.000000 10.000000 
weapon_bone 0.000000 0.000000 0.000000 0.000000 0.000000 0.000000 10.000000 
Bip01_Head 0.000000 0.000000 0.000000 0.000000 0.000000 0.000000 10.000000 
eye_left_bone 0.000000 0.000000 0.000000 0.000000 0.000000 0.000000 10.000000 
eye_right_bone 0.000000 0.000000 0.000000 0.000000 0.000000 0.000000 10.000000 
L_forearm 0.000000 0.000000 0.000000 0.000000 0.000000 0.000000 10.000000 
L_front_hand 0.000000 0.000000 0.000000 0.000000 0.000000 0.000000 10.000000 
L_weapon_bone 0.000000 0.000000 0.000000 0.000000 0.000000 0.000000 10.000000 
L_front_hand01_01 0.000000 0.000000 0.000000 0.000000 0.000000 0.000000 10.000000 
L_front_hand02_01 0.000000 0.000000 0.000000 0.000000 0.000000 0.000000 10.000000 
L_front_hand03_01 0.000000 0.000000 0.000000 0.000000 0.000000 0.000000 10.000000 
L_front_hand01_02 0.000000 0.000000 0.000000 0.000000 0.000000 0.000000 10.000000 
L_front_hand02_02 0.000000 0.000000 0.000000 0.000000 0.000000 0.000000 10.000000 
L_front_hand03_02 0.000000 0.000000 0.000000 0.000000 0.000000 0.000000 10.000000 
R_forearm 0.000000 0.000000 0.000000 0.000000 0.000000 0.000000 10.000000 
R_front_hand 0.000000 0.000000 0.000000 0.000000 0.000000 0.000000 10.000000 
R_weapon_bone 0.000000 0.000000 0.000000 0.000000 0.000000 0.000000 10.000000 
R_front_hand01_01 0.000000 0.000000 0.000000 0.000000 0.000000 0.000000 10.000000 
R_front_hand02_01 0.000000 0.000000 0.000000 0.000000 0.000000 0.000000 10.000000 
R_front_hand03_01 0.000000 0.000000 0.000000 0.000000 0.000000 0.000000 10.000000 
R_front_hand01_02 0.000000 0.000000 0.000000 0.000000 0.000000 0.000000 10.000000 
R_front_hand02_02 0.000000 0.000000 0.000000 0.000000 0.000000 0.000000 10.000000 
R_front_hand03_02 0.000000 0.000000 0.000000 0.000000 0.000000 0.000000 10.000000 
null_rope01_connect 0.000000 0.000000 0.000000 0.000000 0.000000 0.000000 10.000000 
Rope1_Seg01 0.000000 0.000000 0.000000 0.000000 0.000000 0.000000 10.000000 
Rope1_Seg02 0.000000 0.000000 0.000000 0.000000 0.000000 0.000000 10.000000 
Rope1_Seg03 0.000000 0.000000 0.000000 0.000000 0.000000 0.000000 10.000000 
Rope1_Seg04 0.000000 0.000000 0.000000 0.000000 0.000000 0.000000 10.000000 
Rope1_Seg05 0.000000 0.000000 0.000000 0.000000 0.000000 0.000000 10.000000 
Rope1_Seg06 0.000000 0.000000 0.000000 0.000000 0.000000 0.000000 10.000000 
Rope1_Seg07 0.000000 0.000000 0.000000 0.000000 0.000000 0.000000 10.000000 
Rope1_Seg09 0.000000 0.000000 0.000000 0.000000 0.000000 0.000000 10.000000 
L_mid_hand01 0.000000 0.000000 0.000000 0.000000 0.000000 0.000000 10.000000 
L_mid_hand02 0.000000 0.000000 0.000000 0.000000 0.000000 0.000000 10.000000 
L_mid_hand03 0.000000 0.000000 0.000000 0.000000 0.000000 0.000000 10.000000 
null_rope02_connect 0.000000 0.000000 0.000000 0.000000 0.000000 0.000000 10.000000 
Rope2_Seg01 0.000000 0.000000 0.000000 0.000000 0.000000 0.000000 10.000000 
Rope2_Seg02 0.000000 0.000000 0.000000 0.000000 0.000000 0.000000 10.000000 
Rope2_Seg03 0.000000 0.000000 0.000000 0.000000 0.000000 0.000000 10.000000 
Rope2_Seg04 0.000000 0.000000 0.000000 0.000000 0.000000 0.000000 10.000000 
Rope2_Seg05 0.000000 0.000000 0.000000 0.000000 0.000000 0.000000 10.000000 
Rope2_Seg06 0.000000 0.000000 0.000000 0.000000 0.000000 0.000000 10.000000 
Rope2_Seg07 0.000000 0.000000 0.000000 0.000000 0.000000 0.000000 10.000000 
Rope2_Seg09 0.000000 0.000000 0.000000 0.000000 0.000000 0.000000 10.000000 
R_mid_hand01 0.000000 0.000000 0.000000 0.000000 0.000000 0.000000 10.000000 
R_mid_hand02 0.000000 0.000000 0.000000 0.000000 0.000000 0.000000 10.000000 
R_mid_hand03 0.000000 0.000000 0.000000 0.000000 0.000000 0.000000 10.000000 
spine02 0.000000 0.000000 0.000000 0.000000 0.000000 0.000000 10.000000 
spine03 0.000000 0.000000 0.000000 0.000000 0.000000 0.000000 10.000000 
pelvis 0.000000 0.000000 0.000000 0.000000 0.000000 0.000000 10.000000 
null_rope03_connect 0.000000 0.000000 0.000000 0.000000 0.000000 0.000000 10.000000 
null_rope04_connect 0.000000 0.000000 0.000000 0.000000 0.000000 0.000000 10.000000 
Rope3_Seg01 0.000000 0.000000 0.000000 0.000000 0.000000 0.000000 10.000000 
Rope3_Seg02 0.000000 0.000000 0.000000 0.000000 0.000000 0.000000 10.000000 
Rope3_Seg03 0.000000 0.000000 0.000000 0.000000 0.000000 0.000000 10.000000 
Rope3_Seg04 0.000000 0.000000 0.000000 0.000000 0.000000 0.000000 10.000000 
Rope3_Seg05 0.000000 0.000000 0.000000 0.000000 0.000000 0.000000 10.000000 
Rope3_Seg06 0.000000 0.000000 0.000000 0.000000 0.000000 0.000000 10.000000 
Rope3_Seg07 0.000000 0.000000 0.000000 0.000000 0.000000 0.000000 10.000000 
Rope3_Seg08 0.000000 0.000000 0.000000 0.000000 0.000000 0.000000 10.000000 
Rope3_Seg09 0.000000 0.000000 0.000000 0.000000 0.000000 0.000000 10.000000 
R_rear_hand01 0.000000 0.000000 0.000000 0.000000 0.000000 0.000000 10.000000 
R_rear_hand02 0.000000 0.000000 0.000000 0.000000 0.000000 0.000000 10.000000 
R_rear_hand03 0.000000 0.000000 0.000000 0.000000 0.000000 0.000000 10.000000 
Rope4_Seg01 0.000000 0.000000 0.000000 0.000000 0.000000 0.000000 10.000000 
Rope4_Seg02 0.000000 0.000000 0.000000 0.000000 0.000000 0.000000 10.000000 
Rope4_Seg03 0.000000 0.000000 0.000000 0.000000 0.000000 0.000000 10.000000 
Rope4_Seg04 0.000000 0.000000 0.000000 0.000000 0.000000 0.000000 10.000000 
Rope4_Seg05 0.000000 0.000000 0.000000 0.000000 0.000000 0.000000 10.000000 
Rope4_Seg06 0.000000 0.000000 0.000000 0.000000 0.000000 0.000000 10.000000 
Rope4_Seg07 0.000000 0.000000 0.000000 0.000000 0.000000 0.000000 10.000000 
Rope4_Seg08 0.000000 0.000000 0.000000 0.000000 0.000000 0.000000 10.000000 
Rope4_Seg09 0.000000 0.000000 0.000000 0.000000 0.000000 0.000000 10.000000 
L_rear_hand01 0.000000 0.000000 0.000000 0.000000 0.000000 0.000000 10.000000 
L_rear_hand02 0.000000 0.000000 0.000000 0.000000 0.000000 0.000000 10.000000 
L_rear_hand03 0.000000 0.000000 0.000000 0.000000 0.000000 0.000000 10.000000 
#Beginning of Data. Separated by tabs
#Fr	Tx	Ty	Tz	Rx	Ry	Rz	SF
[MASTER]
76 -0.000074 554.566467 0.000000 0.001660 0.001660 0.001660 554.566467
77 -0.000074 554.566467 0.000000 0.001660 0.001660 0.001660 554.566467
[root]
76 -303.355255 358.380981 980.111511 -95.944122 -23.880890 -88.507622 1086.775024
77 -302.416931 361.170319 980.606750 -95.931404 -23.896576 -88.760452 1087.883057
[chest]
76 -84.512650 -34.090519 0.000000 3.201680 -1.211078 178.658234 91.129311
77 -84.512650 -34.090519 0.000000 2.732709 -0.895144 178.670898 91.129311
[L_mid_tent01]
76 27.743263 21.923216 -252.769791 11.254358 20.991440 79.680260 255.231049
77 27.740669 21.924704 -252.753082 11.182096 20.704485 79.561760 255.214325
[R_mid_tent01]
76 23.228794 24.509907 226.238495 154.921570 -29.949089 81.509621 228.744751
77 23.228794 24.509907 226.238495 154.915665 -30.258944 81.584587 228.744751
[spine01]
76 -0.361383 -0.195265 0.000000 0.001869 0.001420 15.534141 0.410763
77 -0.361383 -0.195265 0.000000 0.001869 0.001420 15.534141 0.410763
[Bip01_Neck]
76 165.484543 71.581718 0.000119 175.896118 1.177290 24.871183 180.302734
77 165.484543 71.581718 0.000119 175.896118 1.177290 24.871183 180.302734
[L_humerus]
76 -13.983130 -135.272980 -120.471481 173.257645 -1.717155 -136.150070 181.680161
77 -13.983130 -135.272980 -120.471481 173.026642 -1.520498 -135.003494 181.680161
[R_humerus]
76 -13.983309 -135.273102 125.287651 -174.809250 -21.147169 -94.624771 184.909012
77 -13.983309 -135.273102 125.287651 -175.410141 -21.864653 -94.088203 184.909012
[weapon_bone]
76 235.964890 -300.705902 0.000000 0.000000 -89.951546 -128.212341 382.234833
77 235.964890 -300.705902 0.000000 0.000000 -89.951546 -128.212341 382.234833
[Bip01_Head]
76 183.295898 139.114120 12.296774 39.257614 8.495110 -47.382328 230.437286
77 183.295959 139.115173 12.296842 39.257603 8.495106 -47.382309 230.437973
[eye_left_bone]
76 -24.626970 125.451866 -64.772606 0.000000 -90.000000 -99.840431 143.318359
77 -24.626970 125.451866 -64.772606 0.000000 -90.000000 -99.840431 143.318359
[eye_right_bone]
76 -24.626970 125.451866 64.327362 0.000000 -89.960434 80.159386 143.117676
77 -24.626970 125.451866 64.327362 0.000000 -89.960434 80.159386 143.117676
[L_forearm]
76 322.776093 0.000000 -0.000119 0.000085 -0.002346 -94.164368 322.776093
77 322.776093 0.000000 -0.000119 0.000082 -0.002346 -93.985962 322.776093
[L_front_hand]
76 241.149185 -0.042021 -3.300071 -179.422745 -2.194568 -6.165988 241.171753
77 241.149185 -0.042021 -3.300071 -179.409576 -2.190900 -6.513344 241.171753
[L_weapon_bone]
76 156.183838 0.000000 0.000000 0.000014 0.000007 0.000001 156.183838
77 156.183838 0.000000 0.000000 0.000014 0.000007 0.000001 156.183838
[L_front_hand01_01]
76 86.095154 20.947098 -0.655860 -0.366594 -0.477154 75.385574 88.609184
77 86.095154 20.947098 -0.655860 -0.366594 -0.477154 75.385574 88.609184
[L_front_hand02_01]
76 86.935165 -11.437475 24.513514 154.403519 -59.888931 -61.371990 91.046425
77 86.935165 -11.437475 24.513514 154.403519 -59.888931 -61.371990 91.046425
[L_front_hand03_01]
76 86.637497 -14.123976 -20.424902 -153.913849 58.118122 -62.702866 90.126129
77 86.637497 -14.123976 -20.424902 -153.913849 58.118122 -62.702866 90.126129
[L_front_hand01_02]
76 71.020905 -0.000179 0.000030 0.000334 -0.002323 -106.379684 71.020905
77 71.020905 -0.000179 0.000030 0.000334 -0.002323 -106.379684 71.020905
[L_front_hand02_02]
76 71.020927 -0.000119 0.000060 0.000334 -0.002323 -106.379684 71.020927
77 71.020927 -0.000119 0.000060 0.000334 -0.002323 -106.379684 71.020927
[L_front_hand03_02]
76 71.020905 -0.000060 0.000060 0.000334 -0.002323 -106.379684 71.020905
77 71.020905 -0.000060 0.000060 0.000334 -0.002323 -106.379684 71.020905
[R_forearm]
76 322.776428 -0.000060 0.000030 0.212194 0.024698 -97.362160 322.776428
77 322.776428 -0.000060 0.000030 0.212255 0.023981 -97.197060 322.776428
[R_front_hand]
76 238.847015 -0.006795 2.210259 -116.534431 0.789243 -51.441441 238.857239
77 238.847015 -0.006795 2.210259 -116.534431 0.789245 -51.441448 238.857239
[R_weapon_bone]
76 155.664093 0.002503 -0.000030 0.003487 0.001180 -90.988930 155.664078
77 155.664093 0.002503 -0.000030 0.003487 0.001180 -90.988930 155.664078
[R_front_hand01_01]
76 87.624611 14.231146 22.918642 -151.112595 -58.880863 57.651333 91.683487
77 87.624611 14.231146 22.918642 -150.655426 -58.726200 57.117207 91.683487
[R_front_hand02_01]
76 89.356956 14.367283 -19.491137 151.297775 57.240387 59.838627 92.579636
77 89.356956 14.367283 -19.491137 150.863617 57.086269 59.321026 92.579636
[R_front_hand03_01]
76 87.286232 -22.307278 -0.143439 0.142622 -0.428333 -73.436295 90.091743
77 87.286232 -22.307278 -0.143439 0.141379 -0.428747 -73.103844 90.091743
[R_front_hand01_02]
76 71.020905 0.000060 0.000119 0.002332 -0.000271 103.247597 71.020905
77 71.020905 0.000060 0.000119 0.002333 -0.000261 102.780739 71.020905
[R_front_hand02_02]
76 71.020844 -0.000030 -0.000119 0.002332 -0.000271 103.247597 71.020836
77 71.020844 -0.000030 -0.000119 0.002333 -0.000261 102.780739 71.020836
[R_front_hand03_02]
76 71.020905 0.000000 0.000030 0.002332 -0.000271 103.247597 71.020905
77 71.020905 0.000000 0.000030 0.002333 -0.000261 102.780739 71.020905
[null_rope01_connect]
76 328.732483 0.000000 -0.000238 -125.474632 -62.704025 162.773361 328.732483
77 328.732483 0.000000 -0.000238 -125.023064 -62.809273 162.369019 328.732483
[Rope1_Seg01]
76 6.673069 -4.328314 -0.821829 -10.577925 4.611100 -175.660355 7.996221
77 6.671677 -4.332817 -0.796674 -10.783088 4.609846 -176.229996 7.994952
[Rope1_Seg02]
76 139.999863 -0.000179 0.000000 1.874091 10.926764 -4.140262 139.999863
77 139.999863 -0.000179 0.000000 1.838754 10.765283 -4.008610 139.999863
[Rope1_Seg03]
76 139.999924 0.000060 -0.000060 -2.456251 28.968779 -13.108931 139.999924
77 139.999924 0.000060 -0.000060 -2.258846 28.452810 -12.606243 139.999924
[Rope1_Seg04]
76 139.999924 -0.000060 -0.000119 -23.314180 41.360588 -20.861725 139.999924
77 139.999924 -0.000060 -0.000119 -23.495790 41.825356 -20.787251 139.999924
[Rope1_Seg05]
76 139.999832 0.000119 -0.000060 -21.102446 18.786940 -5.646017 139.999832
77 139.999832 0.000119 -0.000060 -21.397816 19.043159 -5.556679 139.999832
[Rope1_Seg06]
76 139.999954 0.000119 -0.000060 -57.928837 23.181356 -1.655161 139.999954
77 139.999954 0.000119 -0.000060 -56.722824 23.052929 -1.461605 139.999954
[Rope1_Seg07]
76 139.999985 0.000060 0.000000 -34.024418 9.561406 15.621642 139.999985
77 139.999985 0.000060 0.000000 -33.916264 9.695900 15.469280 139.999985
[Rope1_Seg09]
76 121.602913 0.000119 -0.000089 -89.793175 -1.359789 0.847147 121.602913
77 121.602913 0.000119 -0.000089 -89.793175 -1.359789 0.847147 121.602913
[L_mid_hand01]
76 103.859421 1.038730 8.195221 116.294914 -23.111715 -31.758034 104.187431
77 103.859421 1.038730 8.195221 116.294914 -23.111713 -31.758034 104.187431
[L_mid_hand02]
76 105.572853 -4.139662 -10.864139 -144.219833 17.447470 -35.360519 106.211075
77 105.572853 -4.139662 -10.864139 -144.219833 17.447468 -35.360519 106.211075
[L_mid_hand03]
76 104.641464 17.579376 -3.913581 -17.830778 17.153103 31.982925 106.179977
77 104.641464 17.579376 -3.913581 -17.830780 17.153103 31.982925 106.179977
[null_rope02_connect]
76 328.732849 0.000179 -0.000119 -97.633446 53.636253 44.852905 328.732849
77 328.732849 0.000179 -0.000119 -98.081032 53.688118 44.382362 328.732849
[Rope2_Seg01]
76 0.000029 0.000229 0.000000 40.700855 29.563900 -29.295710 0.000231
77 0.000028 0.000230 0.000000 40.535759 29.512743 -29.444000 0.000232
[Rope2_Seg02]
76 139.999741 -0.000060 -0.000119 7.935423 6.560852 7.713653 139.999756
77 139.999741 -0.000060 -0.000119 8.052640 6.603898 7.815333 139.999756
[Rope2_Seg03]
76 140.000107 0.000030 0.000000 12.257714 14.331013 13.255500 140.000107
77 140.000107 0.000030 0.000000 12.464803 14.528680 13.471572 140.000107
[Rope2_Seg04]
76 139.999802 0.000000 -0.000060 12.304524 31.111311 18.194334 139.999802
77 139.999802 0.000000 -0.000060 12.339723 31.298693 18.316505 139.999802
[Rope2_Seg05]
76 139.999985 -0.000060 0.000119 0.541763 19.263781 10.780892 139.999985
77 139.999985 -0.000060 0.000119 0.485992 18.932508 10.726138 139.999985
[Rope2_Seg06]
76 139.999893 -0.000030 -0.000119 -1.918446 5.553103 11.367270 139.999893
77 139.999893 -0.000030 -0.000119 -1.899466 5.608050 11.233153 139.999893
[Rope2_Seg07]
76 139.999893 0.000060 -0.000060 -1.847335 5.892934 9.630839 139.999893
77 139.999893 0.000060 -0.000060 -1.844761 6.019280 9.378502 139.999893
[Rope2_Seg09]
76 121.338966 0.000089 -0.000060 33.793236 -1.359788 -0.847141 121.338966
77 121.338966 0.000089 -0.000060 33.793236 -1.359788 -0.847141 121.338966
[R_mid_hand01]
76 104.680779 11.144459 -10.335981 -41.523792 25.424656 28.595957 105.778534
77 104.680779 11.144459 -10.335981 -41.523792 25.424656 28.595957 105.778534
[R_mid_hand02]
76 104.070427 2.443552 8.231699 72.847389 -32.746803 10.013901 104.424065
77 104.070427 2.443552 8.231699 72.847389 -32.746803 10.013901 104.424065
[R_mid_hand03]
76 106.028137 -11.221827 -5.996406 -167.901306 10.259192 -37.009720 106.788818
77 106.028137 -11.221827 -5.996406 -167.901306 10.259192 -37.009720 106.788818
[spine02]
76 129.756927 0.001550 0.000119 -0.245322 -4.052059 -4.355546 129.756927
77 129.756927 0.001550 0.000119 -0.245322 -4.052060 -4.355547 129.756927
[spine03]
76 78.613846 0.087372 -4.898873 0.369658 4.260732 -4.885719 78.766380
77 78.613846 0.087372 -4.898873 0.369659 4.260735 -4.885721 78.766380
[pelvis]
76 169.435242 0.051022 0.000000 -0.010007 -0.191417 -1.897554 169.435257
77 169.435242 0.051022 0.000000 -0.010007 -0.191417 -1.897554 169.435257
[null_rope03_connect]
76 -1.257226 -2.466202 137.391083 -171.000092 -84.939690 -79.442406 137.418976
77 -1.257226 -2.466202 137.391083 -168.271271 -84.908226 -82.166794 137.418976
[null_rope04_connect]
76 -1.259640 -2.480268 -137.844437 -171.000092 -84.939690 -79.442406 137.872513
77 -1.259640 -2.480268 -137.844437 -168.271271 -84.908226 -82.166794 137.872513
[Rope3_Seg01]
76 0.000000 0.000000 0.000000 -33.930244 -38.604782 -7.779002 0.000000
77 0.000000 0.000000 0.000000 -33.714359 -38.642170 -7.988100 0.000000
[Rope3_Seg02]
76 139.999924 -0.000119 0.000060 -2.221707 -1.095029 4.382826 139.999924
77 139.999924 -0.000119 0.000060 -2.207778 -1.080338 4.389937 139.999924
[Rope3_Seg03]
76 139.999924 -0.000119 0.000119 -4.056712 -1.882817 6.478058 139.999924
77 139.999924 -0.000119 0.000119 -4.038401 -1.861002 6.493576 139.999924
[Rope3_Seg04]
76 139.999924 0.000119 0.000000 -8.808756 -3.767400 10.312408 139.999924
77 139.999924 0.000119 0.000000 -8.792706 -3.735353 10.348164 139.999924
[Rope3_Seg05]
76 139.999924 -0.000238 0.000060 -29.693388 -11.817023 21.844973 139.999924
77 139.999924 -0.000238 0.000060 -29.777695 -11.756614 21.947229 139.999924
[Rope3_Seg06]
76 139.999893 -0.000119 -0.000060 -26.892721 -18.048752 12.859214 139.999893
77 139.999893 -0.000119 -0.000060 -27.046885 -18.046677 12.930445 139.999893
[Rope3_Seg07]
76 139.999771 0.000060 -0.000119 -2.621710 -2.503422 1.539325 139.999771
77 139.999771 0.000060 -0.000119 -2.662250 -2.532871 1.545040 139.999771
[Rope3_Seg08]
76 139.999985 -0.000060 0.000000 -3.572753 -3.977447 1.276678 139.999985
77 139.999985 -0.000060 0.000000 -3.606400 -4.001835 1.277736 139.999985
[Rope3_Seg09]
76 90.185997 -0.000179 -0.000060 89.793228 -1.359877 -0.847183 90.185997
77 90.185997 -0.000179 -0.000060 89.793228 -1.359877 -0.847183 90.185997
[R_rear_hand01]
76 103.366196 -6.073594 -10.757982 -161.551193 16.666374 -30.088671 104.101845
77 103.366196 -6.073594 -10.757982 -161.551193 16.666374 -30.088671 104.101845
[R_rear_hand02]
76 100.509819 12.039542 -7.992327 -34.280552 19.289745 28.875523 101.543350
77 100.509819 12.039542 -7.992327 -34.280552 19.289745 28.875523 101.543350
[R_rear_hand03]
76 101.539970 5.215704 5.435467 83.366440 -30.933914 7.284830 101.819031
77 101.539970 5.215704 5.435467 83.366440 -30.933914 7.284830 101.819031
[Rope4_Seg01]
76 -0.000019 -0.000038 0.000076 -75.146996 -23.988018 -152.449158 0.000087
77 -0.000019 -0.000038 0.000075 -75.515793 -23.874243 -152.067749 0.000086
[Rope4_Seg02]
76 139.999985 0.000060 0.000119 8.389403 12.241825 -6.087941 139.999985
77 139.999985 0.000060 0.000119 8.308470 12.268747 -6.025157 139.999985
[Rope4_Seg03]
76 139.999924 0.000000 -0.000238 20.908672 19.281946 -14.326110 139.999924
77 139.999924 0.000000 -0.000238 20.904686 19.432068 -14.249266 139.999924
[Rope4_Seg04]
76 139.999985 0.000000 0.000119 24.318632 11.978346 -24.003778 139.999985
77 139.999985 0.000000 0.000119 24.533587 12.200051 -24.056469 139.999985
[Rope4_Seg05]
76 139.999802 -0.000060 -0.000119 11.867126 2.072891 -16.778633 139.999802
77 139.999802 -0.000060 -0.000119 11.938944 2.091707 -16.791611 139.999802
[Rope4_Seg06]
76 139.999924 0.000000 0.000060 12.253299 2.013363 -26.410490 139.999924
77 139.999924 0.000000 0.000060 12.326003 1.979863 -26.473282 139.999924
[Rope4_Seg07]
76 139.999802 0.000000 0.000000 6.486331 -3.980836 -29.640938 139.999802
77 139.999802 0.000000 0.000000 6.524302 -4.072907 -29.790909 139.999802
[Rope4_Seg08]
76 139.999924 0.000000 0.000119 -1.296453 -3.413840 -12.750819 139.999924
77 139.999924 0.000000 0.000119 -1.313829 -3.454197 -12.777152 139.999924
[Rope4_Seg09]
76 90.185791 0.000060 0.000060 -135.617828 2.228885 0.850567 90.185791
77 90.185791 0.000060 0.000060 -135.617828 2.228885 0.850567 90.185791
[L_rear_hand01]
76 101.696655 -8.392275 -7.654577 -34.454281 -18.946800 151.655121 102.329041
77 101.696655 -8.392275 -7.654577 -34.454281 -18.946800 151.655121 102.329041
[L_rear_hand02]
76 102.726799 -1.568258 5.773216 83.407906 30.330435 172.796509 102.900848
77 102.726799 -1.568258 5.773216 83.407906 30.330435 172.796509 102.900848
[L_rear_hand03]
76 104.552910 9.721220 -10.420293 -161.379868 -16.473232 -150.512238 105.519653
77 104.552910 9.721220 -10.420293 -161.379868 -16.473232 -150.512238 105.519653
